HIERARCHY
ROOT pelvis
{
  OFFSET 0 100 0
  CHANNELS 6 Xposition Yposition Zposition Zrotation Xrotation Yrotation
  JOINT pelvis_right_femur
  {
    OFFSET -10.78128 -3.44521 -0.5502486
    CHANNELS 3 Zrotation Xrotation Yrotation
    JOINT right_femur_tibia
    {
      OFFSET -0.8047443 -44.0398 -0.1307829
      CHANNELS 3 Zrotation Xrotation Yrotation
      JOINT right_tibia_foot
      {
        OFFSET 3.006224 -47.83518 -5
        CHANNELS 3 Zrotation Xrotation Yrotation
        End Site
        {
          OFFSET 0 -5 15
        }
      }
    }
  }
  JOINT pelvis_left_femur
  {
    OFFSET 10.78128 -3.44521 -0.5502486
    CHANNELS 3 Zrotation Xrotation Yrotation
    JOINT left_femur_tibia
    {
      OFFSET 0.8047443 -44.0398 -0.1307829
      CHANNELS 3 Zrotation Xrotation Yrotation
      JOINT left_tibia_foot
      {
        OFFSET -4.370144 -48.10324 -4.275266
        CHANNELS 3 Zrotation Xrotation Yrotation
        End Site
        {
          OFFSET 0 -5 15
        }
      }
    }
  }
  JOINT pelvis_spine1
  {
    OFFSET 0 6.468898 -3.129235
    CHANNELS 3 Zrotation Xrotation Yrotation
    JOINT spine1
    {
      OFFSET 0 23.15396 4.99043
      CHANNELS 3 Zrotation Xrotation Yrotation
      JOINT spine2
      {
        OFFSET 0 20.79997 -5.064912
        CHANNELS 3 Zrotation Xrotation Yrotation
        JOINT neck
        {
          OFFSET 0 14.38658 9.616178
          CHANNELS 3 Zrotation Xrotation Yrotation
          End Site
          {
            OFFSET 0 20 0
          }
        }
      }
      JOINT right_manubrium
      {
        OFFSET -5.722621 16.35077 3.967754
        CHANNELS 3 Zrotation Xrotation Yrotation
        JOINT right_clavicle
        {
          OFFSET -13.16364 1.694482 -4.693211
          CHANNELS 3 Zrotation Xrotation Yrotation
          JOINT right_humerus
          {
            OFFSET -28.5034 -0.3100689 -2.792744
            CHANNELS 3 Zrotation Xrotation Yrotation
            JOINT right_radius
            {
              OFFSET -25.15693 0.02248979 -1.271978
              CHANNELS 3 Zrotation Xrotation Yrotation
              End Site
              {
                OFFSET -15 0 0
              }
            }
          }
        }
      }
      JOINT left_manubrium
      {
        OFFSET 5.722621 16.35077 3.967754
        CHANNELS 3 Zrotation Xrotation Yrotation
        JOINT left_clavicle
        {
          OFFSET 13.16364 1.694482 -4.693211
          CHANNELS 3 Zrotation Xrotation Yrotation
          JOINT left_humerus
          {
            OFFSET 29.39168 -1.063119 -2.237045
            CHANNELS 3 Zrotation Xrotation Yrotation
            JOINT left_radius
            {
              OFFSET 24.59957 -0.9528479 0.9047498
              CHANNELS 3 Zrotation Xrotation Yrotation
              End Site
              {
                OFFSET 15 -0 -0
              }
            }
          }
        }
      }
    }
  }
}
MOTION
Frames: 23
Frame Time: 0.0416666666667
0 103.5113 0 1.106368 1.184487 0.03299441 4.154704 -17.71481 11.11914 -0 38.18135 -0 -4.634919 -17.92127 -2.546664 -7.741867 9.023741 -24.08457 -0 4.717657 -0 14.59987 -14.32058 29.52818 -4.608533 -4.587676 5.275446 3.32401 10.2387 -7.776334 1.578601 21.331 6.175604 2.667875 -25.4842 9.708565 7.976975 -20.12531 12.13756 83.67516 39.16025 -17.13773 -0 0 16.74582 -4.683471 8.037099 4.170855 5.923882 -18.63954 -0.1519796 -92.98139 21.43565 21.29303 0 0 -13.84143 15.33135 14.96126 -3.997814
0.3932054 104.7412 1.491347 1.0084 1.336932 0.1029984 4.55313 -19.34306 10.91709 -0 36.93988 -0 -4.432258 -17.12004 -2.53561 -7.728562 9.756502 -23.88345 -0 4.108742 -0 14.83154 -14.73219 29.55824 -4.490235 -4.389271 5.220369 3.289512 10.22842 -7.749104 1.693829 21.26437 6.142545 2.579571 -25.61106 9.857882 7.563112 -20.16043 12.03531 84.25134 38.81778 -17.49456 -0 0 16.38173 -4.631214 8.035162 4.220569 6.027108 -18.82675 -0.3317501 -92.42229 21.53379 20.723 0 0 -15.45853 15.42234 14.64166 -3.912653
0.4447246 105.8998 5.068629 -2.176578 3.05135 0.459219 8.515664 -31.62128 6.61647 -0 25.57487 -0 -5.25629 -7.955875 -2.517445 -5.15058 15.92413 -20.08406 -0 10.65948 -0 1.744361 -19.87587 19.1637 -0.8320624 -0.8829903 2.394837 2.934693 7.710339 -7.876866 1.143872 21.97433 8.629515 2.967524 -26.9606 11.3918 4.778253 -17.69984 11.21559 89.66326 37.30126 -22.84951 -0 0 10.28734 -8.151805 11.99447 6.221787 5.061176 -20.20392 -2.647815 -92.21691 34.82578 20.62481 0 0 -28.49199 0.8501939 15.61703 16.04114
0.5500008 106.9991 8.234546 -1.943322 3.285414 0.6947908 8.620754 -30.95546 7.87071 -0 27.6965 -0 -4.803207 -9.176928 -2.719139 -5.482661 15.87555 -21.64304 -0 8.119588 -0 3.082141 -20.39272 21.21894 -1.276724 -1.182777 2.674662 2.936504 7.632813 -7.772913 1.299153 21.90688 8.689842 3.092038 -27.12882 11.7287 5.277554 -17.99933 11.15189 89.16609 38.58821 -22.5491 -0 0 11.16837 -6.937586 11.91066 5.654411 5.041272 -19.67135 -2.279893 -93.68386 35.72648 22.2614 0 0 -27.71278 0.3507877 15.923 16.75347
0.7755875 108.7542 11.67601 -3.418439 7.448932 1.407489 13.09181 -35.80177 12.1993 -0 25.99611 -0 -4.796552 -8.049149 -0.9381081 -5.428123 14.77646 -22.54796 -0 11.47975 -0 5.38927 -19.90504 22.73564 -0.6064725 -0.9657252 3.113214 3.332336 7.727922 -7.39887 1.679716 20.73727 9.424158 3.944618 -28.82237 13.55622 7.559682 -17.03621 10.86318 87.70089 45.85881 -22.08693 -0 0 12.16421 -2.296149 12.89622 2.963648 5.764235 -18.79096 -0.7286809 -97.38317 34.48696 26.22919 0 0 -23.8981 5.676938 15.74706 11.49398
1.002987 110.153 15.26644 -3.373951 6.778717 1.721386 12.22151 -35.19917 10.91543 -0 25.40468 -0 -4.96731 -7.813756 -1.198569 -5.185986 14.93387 -21.85299 -0 12.41372 -0 3.610689 -19.87074 21.06192 -0.472467 -0.8557788 2.889172 3.283496 7.584174 -7.544747 1.509187 20.92558 9.357623 3.821892 -28.54353 13.08019 7.174865 -16.9746 10.93996 88.05008 44.44375 -22.41524 -0 0 11.68202 -3.619568 13.01836 3.683145 5.51766 -19.02361 -1.094392 -96.55699 35.01454 25.40189 0 0 -24.86231 4.009379 15.76483 13.30153
1.308782 112.05 19.39944 -4.537393 8.399756 2.35663 13.94465 -36.01596 11.66765 -0 22.90637 -0 -6.427671 -7.144488 0.339732 -4.709205 13.1283 -20.11111 -0 19.70715 -0 3.299915 -17.85872 18.81844 0.4377305 -0.9131161 3.032916 3.634237 8.069656 -7.423855 1.468591 20.50718 9.288773 3.949499 -29.17247 13.3521 7.947791 -16.19027 10.92697 87.08657 45.43773 -22.04084 -0 0 11.77519 -2.118918 12.58041 2.592894 5.876394 -19.22245 -0.4786495 -97.91633 31.94758 26.68607 0 0 -19.85292 8.89363 15.58205 7.536867
1.567884 113.6395 23.88505 -4.2662 6.985258 2.518398 12.11155 -34.31365 9.033139 -0 21.39645 -0 -6.583874 -6.602704 -0.4318696 -4.184601 13.19091 -18.52598 -0 22.9889 -0 -0.7152218 -17.19744 15.26645 0.6810985 -0.6292917 2.630753 3.524656 7.699398 -7.767385 1.111718 20.84329 9.095921 3.705579 -28.48398 12.19635 7.257198 -15.95866 11.09745 87.84701 42.89902 -22.76958 -0 0 10.66322 -4.9971 13.02253 4.156686 5.252403 -19.56922 -1.201639 -95.88528 33.09232 24.70123 0 0 -22.30472 4.967426 15.43972 11.82008
1.849324 115.639 28.83408 -4.666514 6.971176 2.793854 12.05501 -32.27178 8.191526 -0 19.30564 -0 -7.774139 -6.50004 0.170584 -3.690911 11.16036 -16.52151 -0 31.28467 -0 -2.00354 -14.54488 12.67927 1.278886 -0.835288 2.820915 3.667299 8.153113 -7.772329 0.9718179 20.80263 8.704767 3.564473 -28.34355 11.66107 7.365741 -15.48032 11.22399 87.46564 41.82709 -22.65491 -0 0 10.36218 -5.382209 12.72951 4.080688 5.161832 -19.90427 -1.122594 -95.94556 30.60533 24.75377 0 0 -19.04064 7.260816 15.35419 8.757108
2.058071 117.4637 34.06132 -4.1833 5.442 2.77091 10.57756 -29.99942 6.284694 -0 18.14487 -0 -7.791442 -6.136938 -0.8153197 -3.306661 10.82919 -15.17181 -0 34.64987 -0 -5.183064 -13.63232 10.41838 1.298972 -0.4745991 2.577665 3.515964 7.78724 -7.978912 0.7791533 21.1751 8.356819 3.344548 -27.45842 10.5283 6.742697 -15.23765 11.31671 88.00648 39.73261 -22.97177 -0 0 9.384261 -7.729393 12.82815 5.387796 4.607999 -19.99517 -1.691526 -94.01286 31.62942 22.68446 0 0 -21.19701 3.653761 14.86695 12.65765
2.24993 119.6329 39.59012 -4.057332 4.761522 2.741 10.1691 -26.73807 5.495489 -0 16.53281 -0 -8.444234 -6.252089 -0.7530908 -2.975583 8.397666 -13.44792 -0 42.35942 -0 -5.932213 -11.06382 9.056421 1.52446 -0.6520759 2.97352 3.492888 8.284277 -7.944963 0.7069095 21.24188 7.895246 3.212767 -26.93379 9.825234 6.644115 -15.03906 11.48305 87.84443 38.59307 -22.82012 -0 0 9.134827 -8.655333 12.70508 5.582608 4.407088 -20.27677 -1.786967 -93.62258 29.59171 22.34208 0 0 -19.34415 4.818024 14.59174 10.89739
2.342486 121.6895 45.29199 -3.391949 3.050771 2.51258 8.998145 -23.67259 4.186364 -0 15.65629 -0 -8.413041 -6.204418 -1.765092 -2.728007 7.291446 -12.24888 -0 45.71341 -0 -8.173061 -10.14181 8.11173 1.326292 -0.1723508 2.919593 3.264838 7.96859 -7.901463 0.6839906 21.74539 7.40868 3.013366 -25.80815 8.79731 6.025297 -14.80236 11.5079 88.08415 36.7996 -22.53316 -0 0 8.351606 -10.48868 12.43066 6.592473 3.999251 -20.15736 -2.205746 -91.96786 30.33203 20.28205 0 0 -20.80703 1.956759 13.90755 13.86985
2.390694 124.0119 51.10205 -2.868755 1.96515 2.22137 8.453379 -19.32025 3.638834 -0 14.24297 -0 -8.581437 -6.573839 -1.906561 -2.51612 3.790872 -10.7084 -0 52.42028 -0 -8.345712 -7.964723 7.958039 1.19974 -0.1923273 3.590764 3.067185 8.522536 -7.695797 0.6891745 21.89514 6.95376 2.966424 -24.99809 8.08481 5.842793 -14.88335 11.70952 87.79596 36.0058 -21.99344 -0 0 8.422329 -11.73897 12.43427 6.939199 3.808062 -20.34903 -2.364515 -91.51858 28.65049 19.93138 0 0 -19.82359 2.508399 13.40657 12.85007
2.330695 126.1626 56.89274 -1.972308 -0.100683 1.795119 7.352363 -14.69413 2.667512 -0 13.58026 -0 -8.52369 -7.110391 -2.723852 -2.373104 1.024641 -9.680116 -0 54.74149 -0 -9.626342 -7.377433 8.498057 0.7036889 0.5065204 3.797614 2.644483 8.214254 -7.172003 0.8670083 22.68379 6.352376 2.790029 -23.51293 7.245109 5.121685 -14.7636 11.66565 87.492 34.39067 -20.56871 -0 0 8.075613 -13.30912 11.8151 7.804618 3.632713 -19.93397 -2.630772 -90.44221 29.16949 18.12666 0 0 -20.16624 0.457147 12.85317 14.749
2.249365 128.3485 62.51874 -1.080752 -1.439651 1.328887 6.566401 -8.615355 2.312904 -0 11.96333 -0 -8.181937 -8.159254 -2.65079 -2.133066 -4.910875 -8.240817 -0 58.19239 -0 -9.01279 -6.048603 9.75547 0.1376153 0.7582416 4.87917 2.169324 8.764757 -6.550098 0.9526072 22.93207 5.966529 2.844761 -22.43965 6.653025 4.834508 -15.36164 11.89447 86.49986 34.17615 -18.81516 -0 0 9.094819 -15.00022 11.91959 8.4734 3.610619 -19.9099 -2.725982 -90.33272 27.78297 18.27777 0 0 -19.46732 0.761543 12.22148 14.04327
2.165507 130.014 67.89882 -0.03430126 -3.592641 0.8551329 5.331241 -1.457599 1.433004 -0 11.24364 -0 -8.039864 -9.72844 -2.667041 -1.882674 -10.75825 -7.533576 -0 54.64384 -0 -8.840388 -6.375552 12.20552 -0.6871383 1.627209 5.418181 1.364728 8.322465 -5.234545 1.3046 23.97843 5.461726 2.724215 -20.65474 6.269435 3.839546 -15.83315 11.71589 85.0639 32.84089 -15.14662 -0 0 10.11233 -16.82569 11.07551 9.682652 3.917932 -18.99393 -2.720043 -90.456 27.84312 17.6685 0 0 -17.86381 -0.07418563 12.23997 14.36989
2.274928 131.1493 73.09219 0.7023008 -4.144092 0.4203214 4.371229 6.237011 1.106541 -0 9.178006 -0 -7.06329 -12.39582 -1.654711 -0.8277916 -19.58153 -5.982496 -0 46.47804 -0 -6.908809 -6.284297 14.79774 -1.364875 1.788116 6.696584 0.5871865 8.582234 -4.222891 1.223009 23.88534 5.55733 2.884667 -19.60789 6.095565 3.41042 -17.61771 11.82363 82.39238 33.63009 -10.96125 -0 0 13.48507 -19.44586 11.56175 11.34319 4.288846 -18.58503 -2.468689 -91.02102 25.97839 19.52722 0 0 -16.64472 0.7214108 11.6395 13.20801
2.695347 131.4447 78.47042 0.635406 -4.55433 -0.04981229 3.571463 13.23613 -0.07902655 -0 9.324084 -0 -6.730109 -15.65129 -0.3079644 0.6160046 -25.17427 -5.452932 -0 29.3859 -0 -5.536474 -6.666957 17.77493 -1.36384 1.680891 6.802136 -0.2887079 7.892441 -3.005794 1.123538 24.13328 6.096941 3.219102 -17.96424 6.364325 2.759546 -19.07392 11.28456 79.17358 33.67507 -5.402285 -0 0 16.87228 -22.23962 11.41907 13.33258 5.030991 -17.44195 -2.111448 -92.15157 23.74589 21.5235 0 0 -12.42455 1.958148 12.52552 11.05046
3.457069 131.4107 84.24391 -0.3026747 -3.648198 -0.6507365 3.522986 16.54967 -0.9196556 -0 11.14627 -0 -5.97373 -19.70059 1.096731 2.769119 -27.61805 -4.243921 -0 13.3086 -0 -4.41238 -5.95612 18.74841 -0.5922143 0.6134302 6.846368 -0.5920654 7.929441 -3.037926 0.4271444 23.21212 7.083056 3.918246 -16.84071 6.294737 3.426208 -20.88076 11.07077 75.5879 35.14414 -1.667302 -0 0 20.95124 -24.42731 12.39556 14.54376 5.195708 -17.32587 -1.960065 -92.73292 20.24819 24.80653 0 0 -9.277555 3.629917 13.01399 8.69411
4.228361 131.1949 90.15799 -0.5930384 -4.153064 -1.296958 3.359374 17.57778 -2.084808 -0 12.53247 -0 -6.598079 -19.99016 1.620893 2.770455 -26.58501 -5.071576 -0 9.089504 -0 -4.581414 -5.858801 19.4974 -0.287972 0.3555592 6.381628 -0.9389693 7.661817 -2.686856 0.3899379 23.56053 7.549771 4.590636 -15.70016 6.303776 3.54495 -20.6205 10.6618 74.7099 35.09377 -0.3390203 -0 0 21.16324 -25.42814 12.08373 14.61416 5.669517 -17.11247 -2.224411 -93.17394 18.78449 24.91645 0 0 -6.243185 4.860486 14.44824 6.528343
4.855326 131.0467 96.01353 -0.3716418 -4.535625 -1.884205 3.261464 17.27759 -2.158391 -0 12.06946 -0 -6.925805 -18.84958 1.422437 2.216741 -26.20067 -5.504203 -0 11.96405 -0 -4.7301 -6.088783 19.54026 -0.5030589 0.621638 6.323915 -0.9952029 7.602047 -2.51913 0.5745883 23.89074 7.398136 4.534721 -15.76215 6.356261 3.286254 -20.17722 10.64172 75.49155 34.69478 -0.8928507 -0 0 20.21892 -25.26597 11.82276 14.46124 5.78848 -17.09981 -2.330835 -93.1332 19.34128 24.09634 0 0 -6.508095 4.756266 14.6028 6.610945
5.359808 130.93 101.8324 -0.2377638 -5.038856 -2.472552 3.16996 17.23026 -2.28939 -0 11.81803 -0 -7.375541 -17.77836 1.217147 1.638199 -25.59436 -6.168926 -0 14.07416 -0 -4.951191 -6.372525 19.8407 -0.6504287 0.8984823 6.121488 -1.091205 7.411454 -2.238349 0.8490973 24.36452 7.208357 4.427689 -15.71664 6.509427 2.872141 -19.65373 10.50215 76.30653 33.96909 -1.185682 -0 0 19.19691 -25.12541 11.35604 14.40435 5.953119 -16.86423 -2.387364 -93.25127 19.9513 23.22438 0 0 -6.16001 4.67193 15.00171 6.600664
5.81047 130.8555 107.6774 -0.3028903 -5.113893 -3.083688 3.154432 17.33268 -2.36623 -0 11.89412 -0 -7.456069 -17.72483 1.233314 1.60184 -25.48843 -6.283473 -0 13.85531 -0 -4.967936 -6.391222 19.94539 -0.6360845 0.9003163 6.067792 -1.12451 7.375135 -2.184632 0.8788374 24.4291 7.213806 4.449555 -15.63777 6.533148 2.824946 -19.60523 10.45563 76.32147 33.86986 -1.094985 -0 0 19.14456 -25.18598 11.28643 14.42571 5.997122 -16.81025 -2.401346 -93.30564 19.90378 23.17566 0 0 -5.890079 4.748861 15.13501 6.456821
